<?xml version="1.0" standalone="no"?>
<!DOCTYPE svg PUBLIC "-//W3C//DTD SVG 20010904//EN"
 "http://www.w3.org/TR/2001/REC-SVG-20010904/DTD/svg10.dtd">
<svg version="1.0" xmlns="http://www.w3.org/2000/svg"
 width="750.000000pt" height="750.000000pt" viewBox="0 0 750.000000 750.000000"
 preserveAspectRatio="xMidYMid meet">
<metadata>
Created by potrace 1.14, written by Peter Selinger 2001-2017
</metadata>
<g transform="translate(0.000000,750.000000) scale(0.100000,-0.100000)"
fill="#000000" stroke="none">
<path d="M1781 7484 c0 -11 3 -14 6 -6 3 7 2 16 -1 19 -3 4 -6 -2 -5 -13z"/>
<path d="M1785 6980 c0 -267 1 -376 2 -242 2 133 2 351 0 485 -1 133 -2 24 -2
-243z"/>
<path d="M3726 7052 c-3 -3 -6 -234 -6 -514 0 -501 0 -508 20 -508 11 0 20 6
20 13 0 6 2 235 5 508 4 482 4 497 -15 502 -10 3 -21 2 -24 -1z"/>
<path d="M2794 6870 c0 -52 1 -74 3 -47 2 26 2 68 0 95 -2 26 -3 4 -3 -48z"/>
<path d="M2854 6885 c3 -9 36 -101 72 -204 36 -102 71 -199 79 -216 17 -39 92
-252 100 -287 4 -15 16 -28 28 -32 27 -7 31 -2 18 21 -6 10 -33 83 -62 163
-28 80 -55 156 -61 170 -6 14 -40 108 -77 210 -51 139 -72 186 -86 189 -13 2
-16 -1 -11 -14z"/>
<path d="M4595 6888 c-3 -7 -30 -84 -60 -172 -30 -87 -64 -179 -74 -205 -60
-145 -191 -525 -186 -539 3 -9 9 -12 15 -6 10 10 340 910 340 927 0 12 -30 7
-35 -5z"/>
<path d="M2792 6750 c0 -14 2 -19 5 -12 2 6 2 18 0 25 -3 6 -5 1 -5 -13z"/>
<path d="M2789 6562 c-2 -51 0 -82 6 -82 6 0 9 24 7 57 -5 103 -8 110 -13 25z"/>
<path d="M800 6479 c0 -5 5 -7 10 -4 6 3 10 8 10 11 0 2 -4 4 -10 4 -5 0 -10
-5 -10 -11z"/>
<path d="M1193 6483 c82 -2 212 -2 290 0 78 1 12 3 -148 3 -159 0 -223 -2
-142 -3z"/>
<path d="M1763 6483 c9 -2 23 -2 30 0 6 3 -1 5 -18 5 -16 0 -22 -2 -12 -5z"/>
<path d="M1943 6483 c20 -2 54 -2 75 0 20 2 3 4 -38 4 -41 0 -58 -2 -37 -4z"/>
<path d="M2438 6483 c7 -3 16 -2 19 1 4 3 -2 6 -13 5 -11 0 -14 -3 -6 -6z"/>
<path d="M2498 6483 c7 -3 16 -2 19 1 4 3 -2 6 -13 5 -11 0 -14 -3 -6 -6z"/>
<path d="M2828 6483 c7 -3 16 -2 19 1 4 3 -2 6 -13 5 -11 0 -14 -3 -6 -6z"/>
<path d="M3233 6483 c32 -2 81 -2 110 0 29 2 3 3 -58 3 -60 0 -84 -1 -52 -3z"/>
<path d="M4138 6483 c12 -2 30 -2 40 0 9 3 -1 5 -23 4 -22 0 -30 -2 -17 -4z"/>
<path d="M5018 6483 c7 -3 16 -2 19 1 4 3 -2 6 -13 5 -11 0 -14 -3 -6 -6z"/>
<path d="M2076 6448 c5 -7 61 -77 127 -155 106 -128 147 -165 147 -132 0 5
-54 75 -120 155 -83 99 -127 144 -141 144 -13 0 -18 -4 -13 -12z"/>
<path d="M5294 6368 c-44 -50 -90 -106 -104 -123 -14 -18 -104 -126 -200 -240
-264 -312 -280 -332 -273 -339 16 -16 36 0 104 82 433 516 579 693 579 702 0
28 -35 1 -106 -82z"/>
<path d="M1785 6060 c0 -201 1 -283 2 -182 2 100 2 264 0 365 -1 100 -2 18 -2
-183z"/>
<path d="M2793 6250 c0 -25 2 -35 4 -22 2 12 2 32 0 45 -2 12 -4 2 -4 -23z"/>
<path d="M2643 6160 c-83 -3 -154 -7 -156 -10 -3 -3 74 -5 171 -6 98 0 170 2
162 4 -8 3 -17 8 -20 11 -3 3 -73 4 -157 1z"/>
<path d="M2983 6123 c9 -2 25 -2 35 0 9 3 1 5 -18 5 -19 0 -27 -2 -17 -5z"/>
<path d="M2402 6075 c-124 -29 -208 -72 -282 -145 -101 -99 -158 -227 -167
-375 -9 -150 32 -268 119 -337 l42 -33 128 -1 128 -1 -43 43 c-45 47 -77 98
-77 126 0 9 -8 36 -18 60 -32 74 -29 180 9 300 38 124 67 178 128 241 65 68
120 103 198 126 l68 19 -65 1 c-36 0 -111 -11 -168 -24z m-122 -71 c0 -3 -16
-12 -35 -20 -22 -9 -33 -19 -29 -26 4 -6 3 -8 -3 -5 -13 8 -55 -27 -45 -38 4
-5 1 -5 -5 -1 -7 4 -13 2 -13 -4 0 -6 -21 -33 -47 -58 -30 -31 -42 -38 -33
-22 21 39 135 149 172 165 39 17 38 17 38 9z m-220 -219 c0 -8 -4 -15 -10 -15
-5 0 -7 7 -4 15 4 8 8 15 10 15 2 0 4 -7 4 -15z m-4 -471 c-4 -10 5 -27 24
-47 16 -17 27 -33 24 -36 -8 -8 -74 70 -74 87 0 6 7 12 16 12 11 0 14 -5 10
-16z"/>
<path d="M2717 6090 c56 -6 93 -18 169 -56 160 -79 249 -192 273 -344 5 -36
11 -263 13 -505 l3 -440 -28 -47 c-31 -53 -122 -124 -211 -163 l-57 -25 15
-27 c18 -36 83 -101 120 -120 17 -9 41 -13 58 -9 17 3 46 3 67 0 l36 -6 -3
-482 -3 -482 23 -27 c26 -30 43 -34 55 -13 21 37 197 216 213 216 10 0 27 -15
37 -33 24 -41 106 -110 198 -169 110 -71 146 -86 236 -99 79 -11 86 -11 127
10 85 44 537 354 545 375 5 12 4 118 -2 236 -14 292 -4 1628 13 1696 7 29 5
34 -35 64 -109 79 -268 190 -469 328 -63 43 -66 44 -125 39 -96 -9 -291 -98
-364 -166 -39 -36 -93 -58 -84 -34 5 13 2 15 -13 9 -15 -6 -16 -5 -7 5 39 39
-119 148 -292 202 -73 23 -198 45 -295 52 -47 3 -103 10 -125 15 -22 5 -67 9
-100 8 l-60 -1 72 -7z m1339 -304 c28 -9 69 -29 91 -45 78 -57 73 19 73 -1080
0 -1074 3 -1012 -60 -1085 -44 -49 -75 -64 -151 -72 -99 -10 -251 36 -322 97
-39 34 -126 124 -144 149 -13 18 -15 103 -18 548 -3 477 -4 918 -2 997 0 17
-2 66 -6 110 -4 49 -3 70 2 55 8 -23 9 -24 10 -3 1 12 -3 25 -9 28 -5 3 -10
11 -10 16 0 6 4 8 9 5 4 -3 9 25 10 62 1 37 6 71 11 76 6 6 10 7 10 3 0 -4 8
1 18 11 140 134 317 180 488 128z m-835 -1078 c-10 -11 -11 -9 -5 6 5 13 4 17
-4 12 -8 -4 -12 0 -12 11 0 16 1 16 17 0 14 -14 15 -19 4 -29z m-24 -18 c1
-11 -2 -18 -7 -15 -4 3 -10 2 -12 -2 -2 -5 -19 -21 -38 -38 -29 -26 -28 -23
11 22 24 29 44 52 44 53 1 0 1 -9 2 -20z m-157 -130 c-8 -5 -19 -10 -25 -10
-5 0 -3 5 5 10 8 5 20 10 25 10 6 0 3 -5 -5 -10z m-81 -102 c17 -18 31 -37 31
-42 0 -5 -16 8 -35 28 -19 21 -35 39 -35 42 0 10 11 2 39 -28z m1326 -690 c8
-32 1 -71 -14 -76 -9 -3 -11 11 -10 47 3 53 15 67 24 29z m-679 -305 c-7 -7
-26 7 -26 19 0 6 6 6 15 -2 9 -7 13 -15 11 -17z m44 -34 c17 -13 18 -17 5 -10
-33 17 -51 31 -40 31 6 0 21 -10 35 -21z m60 -39 c0 -5 -7 -7 -15 -4 -8 4 -15
8 -15 10 0 2 7 4 15 4 8 0 15 -4 15 -10z"/>
<path d="M3815 5741 c-44 -11 -113 -48 -172 -92 l-53 -40 0 -915 0 -915 68
-67 c59 -58 144 -119 192 -137 13 -5 15 101 12 921 l-2 926 22 19 c39 32 171
97 213 104 78 14 90 36 61 106 -19 44 -42 65 -95 84 -46 16 -190 19 -246 6z"/>
<path d="M4105 5512 c-12 -8 -12 -9 -122 -310 -62 -171 -83 -242 -81 -270 5
-52 -6 -78 168 408 29 80 56 150 61 156 15 18 -6 31 -26 16z"/>
<path d="M4087 4928 c-8 -13 -56 -70 -106 -128 -86 -100 -105 -130 -80 -130
18 0 229 250 229 271 0 17 -28 9 -43 -13z"/>
<path d="M4017 4666 c-104 -58 -127 -73 -127 -87 0 -17 34 -9 79 19 25 16 72
44 104 62 31 19 57 40 57 47 0 20 -8 17 -113 -41z"/>
<path d="M3995 4549 c-84 -18 -116 -32 -103 -44 3 -3 49 1 102 9 90 13 126 26
126 47 0 12 -20 10 -125 -12z"/>
<path d="M3892 4459 c3 -8 40 -21 89 -31 103 -21 139 -22 139 -5 0 9 -27 18
-77 27 -136 23 -156 24 -151 9z"/>
<path d="M3890 4391 c0 -14 201 -131 223 -131 37 0 9 26 -89 83 -94 54 -134
68 -134 48z"/>
<path d="M3897 4306 c-4 -10 -4 -23 0 -29 13 -22 190 -232 212 -251 21 -19 21
-19 21 1 0 10 -37 64 -82 119 -46 55 -97 117 -114 138 -26 33 -32 36 -37 22z"/>
<path d="M3901 4043 c-1 -28 21 -104 64 -225 71 -198 76 -210 93 -216 22 -7
12 30 -63 237 -96 262 -93 256 -94 204z"/>
<path d="M3937 3553 c18 -2 50 -2 70 0 21 2 7 4 -32 4 -38 0 -55 -2 -38 -4z"/>
<path d="M3978 6063 c6 -2 18 -2 25 0 6 3 1 5 -13 5 -14 0 -19 -2 -12 -5z"/>
<path d="M3915 6050 c-13 -6 -15 -9 -5 -9 8 0 22 4 30 9 18 12 2 12 -25 0z"/>
<path d="M2600 6026 c-154 -42 -276 -174 -311 -337 -7 -30 -9 -98 -7 -158 5
-111 25 -181 69 -246 33 -48 106 -94 161 -101 49 -7 79 -28 62 -44 -13 -13
-328 -23 -406 -12 -38 4 -68 7 -68 6 0 -12 227 -163 272 -181 56 -23 69 -24
238 -21 l179 3 4 -30 4 -30 1 33 c2 25 6 32 22 32 13 0 20 7 20 20 0 11 -9 25
-20 32 -19 12 -20 24 -21 288 -1 151 -4 265 -6 253 -2 -13 -13 -24 -26 -26
l-22 -4 23 -2 22 -1 0 -240 c0 -132 -2 -240 -5 -240 -3 0 -51 34 -107 76 -123
92 -128 101 -128 282 0 120 0 122 23 123 16 1 18 2 4 6 -21 6 -16 35 20 111
35 74 109 146 190 184 62 30 77 33 164 33 114 0 114 1 21 87 -110 101 -245
139 -372 104z"/>
<path d="M3830 6020 c-8 -5 -10 -10 -5 -10 6 0 17 5 25 10 8 5 11 10 5 10 -5
0 -17 -5 -25 -10z"/>
<path d="M3760 5989 c0 -5 5 -7 10 -4 6 3 10 8 10 11 0 2 -4 4 -10 4 -5 0 -10
-5 -10 -11z"/>
<path d="M3545 5907 c30 -37 40 -43 48 -29 3 4 -13 20 -36 37 l-41 29 29 -37z"/>
<path d="M1510 5771 c0 -15 39 -40 270 -172 14 -8 33 -20 42 -27 16 -14 38 -9
38 8 0 8 -39 34 -110 73 -19 11 -76 44 -127 73 -90 54 -113 63 -113 45z"/>
<path d="M5860 5729 c-47 -27 -92 -54 -100 -58 -54 -33 -332 -194 -415 -241
-55 -31 -143 -81 -195 -112 -52 -31 -110 -64 -129 -75 -36 -20 -52 -43 -29
-43 7 0 94 47 193 104 99 56 214 122 255 146 41 23 120 69 175 101 55 31 118
68 141 81 171 98 213 125 214 136 0 21 -22 13 -110 -39z"/>
<path d="M2710 5704 c0 -13 45 -74 100 -134 8 -9 56 -66 105 -125 139 -168
164 -194 165 -169 0 12 -55 87 -136 185 -75 90 -154 185 -176 212 -41 49 -58
58 -58 31z"/>
<path d="M4678 4628 l-3 -1011 -285 -199 c-157 -110 -298 -206 -315 -213 -40
-17 -128 -5 -221 29 -39 14 -76 26 -81 26 -6 0 -45 -78 -88 -172 -106 -238
-132 -263 -271 -260 -172 4 -365 69 -724 248 -146 72 -288 140 -316 150 -50
17 -53 17 -100 -1 -27 -10 -70 -38 -96 -63 -37 -35 -53 -43 -73 -40 -44 9 -27
-15 47 -67 39 -27 105 -74 146 -102 l75 -53 41 40 c64 63 126 100 168 100 45
0 63 -7 388 -168 146 -72 310 -146 366 -165 125 -44 284 -77 364 -77 116 0
150 36 251 263 61 138 80 172 95 170 11 0 47 -13 82 -28 37 -15 91 -28 130
-32 l67 -5 220 151 c317 217 395 274 396 291 3 93 -3 2015 -7 2021 -6 10 -242
179 -249 179 -3 0 -6 -455 -7 -1012z"/>
<path d="M1781 5544 c0 -11 3 -14 6 -6 3 7 2 16 -1 19 -3 4 -6 -2 -5 -13z"/>
<path d="M1755 5509 c-19 -4 -3 -7 45 -7 76 0 84 4 20 10 -19 2 -48 0 -65 -3z"/>
<path d="M800 5499 c0 -5 5 -7 10 -4 6 3 10 8 10 11 0 2 -4 4 -10 4 -5 0 -10
-5 -10 -11z"/>
<path d="M2637 5503 c18 -2 50 -2 70 0 21 2 7 4 -32 4 -38 0 -55 -2 -38 -4z"/>
<path d="M2988 5503 c12 -2 30 -2 40 0 9 3 -1 5 -23 4 -22 0 -30 -2 -17 -4z"/>
<path d="M5183 5503 c15 -2 37 -2 50 0 12 2 0 4 -28 4 -27 0 -38 -2 -22 -4z"/>
<path d="M1782 5167 c-2 -298 -3 -318 -19 -313 -18 5 -536 96 -547 96 -14 0
-4 -29 12 -34 21 -6 188 -38 392 -74 l155 -27 3 -158 3 -157 -242 0 c-133 0
-240 -2 -238 -5 3 -2 114 -5 248 -5 l243 -1 -1 160 c-1 89 1 161 5 161 6 0
695 -122 909 -161 186 -33 235 -35 235 -10 0 6 -17 13 -37 16 -21 3 -53 8 -70
11 l-33 5 -2 97 -2 97 -3 -92 c-3 -84 -6 -93 -23 -93 -16 0 -871 149 -952 166
l-28 6 -3 316 -2 317 -3 -318z"/>
<path d="M2870 4991 c0 -5 7 -17 16 -25 16 -16 180 -116 190 -116 3 0 4 10 2
22 -2 15 -30 36 -98 75 -98 55 -110 60 -110 44z"/>
<path d="M5995 4905 c-132 -23 -343 -61 -470 -83 -126 -23 -297 -53 -380 -67
-149 -26 -178 -36 -159 -55 8 -8 502 73 844 139 58 11 173 32 255 46 180 31
185 33 185 51 0 18 3 19 -275 -31z"/>
<path d="M1848 4493 c7 -3 16 -2 19 1 4 3 -2 6 -13 5 -11 0 -14 -3 -6 -6z"/>
<path d="M1993 4493 c48 -2 125 -2 170 0 45 1 6 3 -88 3 -93 0 -130 -2 -82 -3z"/>
<path d="M2263 4493 c9 -2 23 -2 30 0 6 3 -1 5 -18 5 -16 0 -22 -2 -12 -5z"/>
<path d="M2358 4493 c7 -3 16 -2 19 1 4 3 -2 6 -13 5 -11 0 -14 -3 -6 -6z"/>
<path d="M2793 4415 c0 -33 2 -45 4 -27 2 18 2 45 0 60 -2 15 -4 0 -4 -33z"/>
<path d="M1782 4313 c-1 -84 -5 -153 -9 -153 -11 0 -400 -69 -480 -85 -40 -8
-75 -15 -78 -15 -3 0 -5 -7 -5 -15 0 -22 26 -19 313 33 154 29 257 44 257 37
0 -6 3 -6 8 1 4 7 77 24 162 38 85 15 305 54 489 87 184 33 340 58 348 55 7
-3 13 -2 13 3 0 5 20 12 45 15 31 5 45 12 45 23 0 19 -20 17 -330 -38 -124
-22 -288 -51 -365 -64 -77 -14 -200 -35 -272 -48 l-132 -24 -4 151 -3 151 -2
-152z"/>
<path d="M3052 4267 l63 -44 3 35 c2 19 2 35 0 37 -2 1 -31 5 -66 8 l-63 7 63
-43z"/>
<path d="M4980 4266 c0 -16 -22 -11 410 -87 190 -33 352 -63 360 -66 8 -3 18
-6 21 -5 4 1 109 -17 235 -38 248 -43 264 -45 264 -30 0 18 -41 29 -250 65
-273 47 -373 65 -709 125 -308 54 -331 57 -331 36z"/>
<path d="M2791 4254 c0 -11 3 -14 6 -6 3 7 2 16 -1 19 -3 4 -6 -2 -5 -13z"/>
<path d="M2794 4100 c0 -74 1 -105 3 -67 2 37 2 97 0 135 -2 37 -3 6 -3 -68z"/>
<path d="M3035 4096 c-340 -195 -553 -318 -755 -436 -135 -79 -292 -170 -350
-203 -58 -33 -157 -91 -220 -127 -63 -37 -134 -77 -157 -89 -24 -12 -43 -28
-43 -36 0 -8 2 -15 5 -15 12 0 180 92 275 150 20 12 243 142 296 172 23 12
131 75 240 139 110 64 258 150 329 192 l130 75 6 -26 c6 -26 7 -26 8 4 1 30 9
36 137 109 120 68 156 96 142 110 -2 2 -22 -6 -43 -19z"/>
<path d="M1784 3790 c0 -162 2 -229 3 -147 2 81 2 213 0 295 -1 81 -3 14 -3
-148z"/>
<path d="M2794 3740 c0 -69 1 -97 3 -62 2 34 2 90 0 125 -2 34 -3 6 -3 -63z"/>
<path d="M4982 3763 c2 -9 72 -56 158 -106 675 -391 810 -467 822 -467 4 0 8
6 8 13 0 6 -39 34 -88 62 -48 27 -98 57 -112 66 -62 42 -770 449 -780 449 -6
0 -10 -7 -8 -17z"/>
<path d="M3001 3630 c-72 -82 -82 -100 -57 -100 19 0 136 138 136 161 0 10 -2
19 -4 19 -2 0 -35 -36 -75 -80z"/>
<path d="M2528 3603 c23 -2 61 -2 85 0 23 2 4 4 -43 4 -47 0 -66 -2 -42 -4z"/>
<path d="M2465 3541 c-22 -10 -56 -36 -77 -57 -41 -44 -153 -213 -145 -220 2
-3 17 6 33 19 30 23 104 37 104 18 0 -5 10 -13 23 -17 12 -4 33 -15 46 -25 13
-11 32 -19 41 -19 10 0 20 -7 24 -15 3 -8 16 -15 30 -15 13 0 26 -6 29 -14 3
-8 19 -17 36 -21 17 -4 31 -11 31 -16 0 -5 5 -9 10 -9 11 0 111 -44 183 -81
21 -10 44 -19 52 -19 8 0 15 -4 15 -9 0 -5 13 -12 29 -16 16 -3 35 -13 42 -21
6 -8 19 -14 29 -14 10 0 23 -7 30 -15 7 -8 21 -15 32 -15 10 0 32 -7 48 -15
80 -41 377 -78 387 -47 3 6 10 12 17 12 29 0 76 74 117 187 12 32 26 64 32 71
18 23 -7 33 -94 37 -87 4 -107 7 -124 16 -5 3 -30 11 -55 19 -75 21 -149 49
-173 64 -12 8 -38 17 -57 21 -19 4 -105 41 -190 82 -85 42 -177 86 -205 98
-124 57 -229 69 -300 36z m-33 -63 c-7 -7 -12 -8 -12 -2 0 14 12 26 19 19 2
-3 -1 -11 -7 -17z m-28 -33 c-4 -8 -10 -15 -15 -15 -5 0 -9 -7 -9 -15 0 -8 -5
-15 -11 -15 -11 0 -4 15 19 43 18 21 23 22 16 2z"/>
<path d="M3383 3414 c-37 -41 -69 -81 -71 -88 -2 -8 25 -20 75 -34 203 -54
323 -56 323 -5 0 7 -35 35 -77 62 -43 27 -98 70 -123 95 -24 26 -47 46 -51 46
-4 0 -38 -34 -76 -76z"/>
<path d="M1778 2885 c-2 -212 0 -385 5 -385 4 0 7 173 7 385 0 212 -2 385 -5
385 -2 0 -6 -173 -7 -385z"/>
<path d="M4771 3257 c-10 -13 2 -32 76 -119 388 -456 523 -622 510 -630 -7 -4
4 -8 26 -8 29 0 35 3 28 13 -6 6 -43 53 -83 102 -83 104 -415 501 -467 560
-20 22 -45 53 -57 68 -17 25 -22 27 -33 14z"/>
<path d="M4283 2943 c3 -10 37 -102 75 -204 38 -103 71 -196 75 -208 l5 -21
-334 0 -334 0 0 41 c0 36 -2 40 -22 37 -19 -2 -24 -10 -26 -40 l-3 -38 -327
-3 -327 -2 327 -3 327 -2 7 -47 c4 -27 4 -157 0 -290 l-7 -243 23 0 23 0 -3
290 -3 290 344 0 344 0 78 -215 c49 -135 83 -215 92 -215 7 0 13 5 13 10 0 10
-279 783 -305 848 -15 34 -52 47 -42 15z"/>
<path d="M2792 2728 l-2 -218 -340 0 c-187 0 -340 2 -340 5 0 5 80 99 242 288
38 44 46 58 34 63 -8 3 -19 3 -25 0 -17 -11 -281 -335 -281 -346 0 -5 -56 -11
-137 -12 -76 -2 129 -4 456 -6 327 -1 596 -4 598 -6 4 -4 -60 -183 -122 -343
-29 -74 -30 -83 -14 -83 12 0 24 19 43 68 31 84 126 343 176 482 21 58 41 113
45 123 5 12 2 17 -12 17 -14 0 -27 -25 -62 -125 l-43 -125 -104 0 -104 0 -3
218 -2 217 -3 -217z"/>
<path d="M4780 2523 c0 -9 -38 -13 -137 -16 -76 -1 31 -3 237 -3 206 1 272 2
145 3 -168 3 -231 7 -237 16 -6 9 -8 9 -8 0z"/>
<path d="M5308 2503 c6 -2 18 -2 25 0 6 3 1 5 -13 5 -14 0 -19 -2 -12 -5z"/>
<path d="M5458 2503 c17 -2 47 -2 65 0 17 2 3 4 -33 4 -36 0 -50 -2 -32 -4z"/>
<path d="M2795 2050 c0 -234 1 -329 2 -213 2 117 2 309 0 425 -1 117 -2 22 -2
-212z"/>
<path d="M1785 2030 c0 -228 1 -322 2 -208 2 115 2 301 0 415 -1 115 -2 21 -2
-207z"/>
<path d="M3773 1775 c0 -27 2 -38 4 -22 2 15 2 37 0 50 -2 12 -4 0 -4 -28z"/>
<path d="M1692 1602 l-92 -3 0 -37 c0 -20 -2 -179 -5 -352 -4 -173 -3 -386 1
-472 l7 -158 34 0 c34 0 34 -1 31 -37 l-3 -38 57 -3 58 -3 3 -252 2 -252 3
251 2 252 128 3 c116 4 131 6 172 31 56 33 102 81 129 133 34 68 43 157 39
401 -3 254 -8 276 -80 365 -37 46 -137 127 -183 149 -35 16 -170 26 -303 22z
m276 -262 l33 0 -3 -252 c-3 -229 -5 -256 -22 -281 -22 -33 -65 -57 -101 -57
l-25 0 0 294 0 295 23 4 c12 3 31 3 42 1 11 -2 35 -4 53 -4z m87 -695 c-16
-14 -34 -25 -39 -25 -12 0 -3 9 31 31 40 25 43 22 8 -6z"/>
<path d="M2720 1090 l0 -510 36 0 c34 0 35 -2 34 -32 -1 -18 -2 -37 -1 -43 1
-6 90 -9 252 -7 222 2 250 4 245 18 -3 9 -6 49 -6 90 l0 74 -40 0 c-39 0 -40
1 -40 35 l0 34 -112 3 -113 3 -3 98 -3 97 156 0 155 0 0 90 0 90 -40 0 c-39 0
-40 1 -40 35 l0 35 -115 0 -115 0 0 75 0 75 155 0 155 0 0 90 0 90 -40 0 c-39
0 -40 1 -40 35 l0 35 -240 0 -240 0 0 -510z m170 238 c0 -38 -4 -57 -9 -48 -7
14 -3 110 5 110 2 0 4 -28 4 -62z m14 -295 c-5 -5 -12 -12 -16 -18 -4 -6 -8
-2 -8 8 0 9 7 17 17 17 9 0 12 -3 7 -7z m-17 -165 c-2 -24 -4 -5 -4 42 0 47 2
66 4 43 2 -24 2 -62 0 -85z m320 -290 c-3 -8 -6 -5 -6 6 -1 11 2 17 5 13 3 -3
4 -12 1 -19z"/>
<path d="M3752 1088 l3 -513 38 0 39 0 -6 -37 -6 -38 250 0 250 0 0 90 0 90
-43 0 -43 0 4 35 4 34 -118 3 -119 3 -3 98 -3 97 161 0 161 0 -3 88 -3 87 -42
3 c-42 3 -43 4 -43 37 l0 34 -112 3 -113 3 0 70 0 70 152 3 152 3 3 89 3 90
-42 0 c-42 0 -43 0 -43 35 l0 35 -240 0 -240 0 2 -512z m175 310 c-3 -7 -5 -2
-5 12 0 14 2 19 5 13 2 -7 2 -19 0 -25z m-10 -50 c-3 -8 -6 -5 -6 6 -1 11 2
17 5 13 3 -3 4 -12 1 -19z m13 -323 c0 -8 -4 -15 -10 -15 -5 0 -7 7 -4 15 4 8
8 15 10 15 2 0 4 -7 4 -15z"/>
<path d="M4781 1568 c0 -28 2 -30 9 -13 6 13 8 -14 8 -75 -1 -93 -2 -94 -8
-30 -4 36 -6 -135 -4 -380 1 -245 3 -452 4 -460 1 -8 -3 -34 -8 -58 -10 -47
-7 -53 23 -41 17 6 17 8 3 8 -13 1 -18 9 -18 31 0 28 2 30 38 30 l38 0 -4 -40
-4 -40 93 0 94 0 0 182 0 183 86 7 c108 8 175 36 230 95 68 74 84 120 84 248
0 102 -2 114 -29 168 -37 71 -120 148 -213 196 -39 19 -58 21 -233 21 l-190 0
1 -32z m367 -224 l52 -7 0 -43 c0 -96 -50 -160 -132 -169 -24 -3 -38 -3 -33 0
6 3 9 42 8 92 -2 135 1 139 105 127z m-191 -141 c-2 -21 -4 -6 -4 32 0 39 2
55 4 38 2 -18 2 -50 0 -70z m322 -159 c-35 -37 -75 -62 -106 -67 -10 -1 -23
-6 -28 -9 -6 -4 -17 -3 -24 1 -9 6 -1 11 23 15 19 4 38 12 42 18 5 7 2 8 -6 3
-8 -5 -11 -4 -7 2 4 6 18 11 32 11 28 0 73 26 82 48 3 8 10 14 16 14 6 0 -5
-16 -24 -36z"/>
<path d="M2213 1523 c9 -2 23 -2 30 0 6 3 -1 5 -18 5 -16 0 -22 -2 -12 -5z"/>
<path d="M2358 1523 c56 -2 148 -2 205 0 56 1 10 3 -103 3 -113 0 -159 -2
-102 -3z"/>
<path d="M2678 1523 c7 -3 16 -2 19 1 4 3 -2 6 -13 5 -11 0 -14 -3 -6 -6z"/>
<path d="M3488 1523 c6 -2 18 -2 25 0 6 3 1 5 -13 5 -14 0 -19 -2 -12 -5z"/>
<path d="M3608 1523 c7 -3 16 -2 19 1 4 3 -2 6 -13 5 -11 0 -14 -3 -6 -6z"/>
<path d="M4463 1523 c15 -2 39 -2 55 0 15 2 2 4 -28 4 -30 0 -43 -2 -27 -4z"/>
<path d="M4753 1523 c9 -2 23 -2 30 0 6 3 -1 5 -18 5 -16 0 -22 -2 -12 -5z"/>
<path d="M2393 513 c59 -2 155 -2 215 0 59 1 10 3 -108 3 -118 0 -167 -2 -107
-3z"/>
<path d="M3730 516 c0 -8 51 -13 56 -5 3 5 -9 9 -25 9 -17 0 -31 -2 -31 -4z"/>
<path d="M3774 245 c0 -137 2 -195 3 -128 2 67 2 179 0 250 -1 70 -3 16 -3
-122z"/>
<path d="M4784 240 c0 -135 2 -190 3 -122 2 67 2 177 0 245 -1 67 -3 12 -3
-123z"/>
<path d="M2794 225 c0 -126 2 -177 3 -112 2 65 2 168 0 230 -1 62 -3 9 -3
-118z"/>
<path d="M5763 35 c0 -22 2 -30 4 -17 2 12 2 30 0 40 -3 9 -5 -1 -4 -23z"/>
</g>
</svg>
